<?xml version="1.0" encoding="iso-8859-1"?>
<!-- Generator: Adobe Illustrator 19.1.0, SVG Export Plug-In . SVG Version: 6.00 Build 0)  -->
<svg xmlns="http://www.w3.org/2000/svg" xmlns:xlink="http://www.w3.org/1999/xlink" version="1.1" id="Capa_1" x="0px" y="0px" viewBox="0 0 63 63" style="enable-background:new 0 0 63 63;" xml:space="preserve" width="512px" height="512px">
<g>
	<g id="group-23svg">
		<path id="path-1_14_" d="M42.573,48.047h-28c-0.828,0-1.5-0.672-1.5-1.501c0-0.829,0.672-1.501,1.5-1.501h28    c0.828,0,1.5,0.672,1.5,1.501C44.073,47.375,43.401,48.047,42.573,48.047z" fill="#718c1b"/>
		<path id="path-2_14_" d="M57.073,48.047h-2.5c-0.828,0-1.5-0.672-1.5-1.501c0-0.829,0.672-1.501,1.5-1.501h2.5    c1.379,0,2.927-1.123,2.927-2.502V30.86c0-1.016-0.812-1.984-1.776-2.526l-3.191-1.657c-1.312-0.737-2.293-1.804-2.759-3.097    l-3.311-8.944c-0.524-1.457-2.14-1.614-2.799-1.614H5.073C3.694,13.022,3,14.145,3,15.524V41.97c0,1.551,1.262,2.794,2.64,2.983    c0.821,0.113,1.289,0.87,1.177,1.692c-0.113,0.821-0.723,1.395-1.53,1.283C2.283,47.516,0,44.844,0,41.97V15.524    c0-3.035,2.041-5.504,5.073-5.504h41.091c2.692,0,4.783,1.342,5.592,3.59l3.284,8.943c0.224,0.622,0.671,1.122,1.331,1.493    l3.297,1.657C61.601,26.789,63,28.76,63,30.86v11.683C63,45.578,60.105,48.047,57.073,48.047z" fill="#718c1b"/>
		<path id="path-3_14_" d="M48.638,52.98c-3.361,0-6.094-2.736-6.094-6.099c0-3.362,2.733-6.098,6.094-6.098    c3.36,0,6.094,2.736,6.094,6.098C54.732,50.244,51.998,52.98,48.638,52.98z M48.638,43.785c-1.706,0-3.094,1.389-3.094,3.096    c0,1.708,1.388,3.097,3.094,3.097s3.094-1.389,3.094-3.097C51.732,45.174,50.344,43.785,48.638,43.785z" fill="#718c1b"/>
		<path id="path-4_13_" d="M9.749,52.98c-3.36,0-6.094-2.736-6.094-6.099c0-3.362,2.734-6.098,6.094-6.098s6.095,2.736,6.095,6.098    C15.844,50.244,13.109,52.98,9.749,52.98z M9.749,43.785c-1.706,0-3.094,1.389-3.094,3.096c0,1.708,1.388,3.097,3.094,3.097    s3.095-1.389,3.095-3.097C12.844,45.174,11.455,43.785,9.749,43.785z" fill="#718c1b"/>
		<path id="path-5_12_" d="M40.5,38.54c-0.828,0-1.5-0.672-1.5-1.501V12.021c0-0.829,0.672-1.501,1.5-1.501s1.5,0.672,1.5,1.501    v25.018C42,37.868,41.328,38.54,40.5,38.54z" fill="#718c1b"/>
		<path id="path-6_10_" d="M60.573,39.041h-59c-0.828,0-1.5-0.672-1.5-1.501c0-0.83,0.672-1.502,1.5-1.502h59    c0.828,0,1.5,0.672,1.5,1.502C62.073,38.369,61.401,39.041,60.573,39.041z" fill="#718c1b"/>
		<path id="path-7_10_" d="M55.573,27.032h-15c-0.828,0-1.5-0.672-1.5-1.501s0.672-1.501,1.5-1.501h15c0.828,0,1.5,0.672,1.5,1.501    S56.401,27.032,55.573,27.032z" fill="#718c1b"/>
	</g>
</g>
<g>
</g>
<g>
</g>
<g>
</g>
<g>
</g>
<g>
</g>
<g>
</g>
<g>
</g>
<g>
</g>
<g>
</g>
<g>
</g>
<g>
</g>
<g>
</g>
<g>
</g>
<g>
</g>
<g>
</g>
</svg>
